<svg id="Capa_1" enable-background="new 0 0 512 512" height="512" viewBox="0 0 512 512" width="512" xmlns="http://www.w3.org/2000/svg"><g><path d="m497 450h-437v-435c0-8.284-6.716-15-15-15s-15 6.716-15 15v75h-15c-8.284 0-15 6.716-15 15s6.716 15 15 15h15v60h-15c-8.284 0-15 6.716-15 15s6.716 15 15 15h15v60h-15c-8.284 0-15 6.716-15 15s6.716 15 15 15h15v60h-15c-8.284 0-15 6.716-15 15s6.716 15 15 15h15v60h-15c-8.284 0-15 6.716-15 15s6.716 15 15 15h15v17c0 8.284 6.716 15 15 15s15-6.716 15-15v-17h60v17c0 8.284 6.716 15 15 15s15-6.716 15-15v-17h60v17c0 8.284 6.716 15 15 15s15-6.716 15-15v-17h60v17c0 8.284 6.716 15 15 15s15-6.716 15-15v-17h60v17c0 8.284 6.716 15 15 15s15-6.716 15-15v-17h77c8.284 0 15-6.716 15-15s-6.716-15-15-15z"/><path d="m105 180c45.936 0 74.606-41.413 102.333-81.462 24.401-35.246 47.45-68.538 77.667-68.538s53.266 33.292 77.667 68.538c27.727 40.049 56.397 81.462 102.333 81.462 8.284 0 15-6.716 15-15s-6.716-15-15-15c-30.217 0-53.266-33.292-77.667-68.538-27.727-40.049-56.397-81.462-102.333-81.462s-74.606 41.413-102.333 81.462c-24.401 35.246-47.45 68.538-77.667 68.538-8.284 0-15 6.716-15 15s6.716 15 15 15z"/><path d="m195 210h-60c-8.284 0-15 6.716-15 15v180c0 8.284 6.716 15 15 15h60c8.284 0 15-6.716 15-15v-180c0-8.284-6.716-15-15-15zm-15 180h-30v-150h30z"/><path d="m315 120h-60c-8.284 0-15 6.716-15 15v270c0 8.284 6.716 15 15 15h60c8.284 0 15-6.716 15-15v-270c0-8.284-6.716-15-15-15zm-15 270h-30v-240h30z"/><path d="m375 210c-8.284 0-15 6.716-15 15v180c0 8.284 6.716 15 15 15h60c8.284 0 15-6.716 15-15v-180c0-8.284-6.716-15-15-15zm45 180h-30v-150h30z"/></g></svg>