<svg height="512" viewBox="0 0 32 32" width="512" xmlns="http://www.w3.org/2000/svg"><g id="Layer_2" data-name="Layer 2"><path d="m27 2h-22a3 3 0 0 0 -3 3v22a3 3 0 0 0 3 3h22a3 3 0 0 0 3-3v-22a3 3 0 0 0 -3-3zm-22 2h22a1 1 0 0 1 1 1v5h-24v-5a1 1 0 0 1 1-1zm22 24h-22a1 1 0 0 1 -1-1v-15h24v15a1 1 0 0 1 -1 1z"/><path d="m7 8h1a1 1 0 0 0 0-2h-1a1 1 0 0 0 0 2z"/><path d="m12 8h1a1 1 0 0 0 0-2h-1a1 1 0 0 0 0 2z"/><path d="m24.972 16.791c-.005-.024-.012-.045-.019-.069a.959.959 0 0 0 -.142-.306l-.008-.009v-.007c0-.007-.012-.009-.017-.015a.98.98 0 0 0 -.252-.225c-.016-.01-.029-.021-.046-.03a.984.984 0 0 0 -.315-.11c-.022 0-.043 0-.066-.008s-.072-.012-.107-.012h-3a1 1 0 0 0 0 2l-5 3.75-7.4-5.55a1 1 0 0 0 -1.2 1.6l8 6a1 1 0 0 0 1.2 0l5.447-4.086a1 1 0 0 0 1.9.6l1-3a.925.925 0 0 0 .028-.137c0-.02.01-.038.012-.058a.988.988 0 0 0 -.015-.328z"/></g></svg>