<svg clip-rule="evenodd" fill-rule="evenodd" stroke-linejoin="round" stroke-miterlimit="2" viewBox="0 0 510 510" xmlns="http://www.w3.org/2000/svg"><path d="m257.582 371.649h-195.285c-4.418 0-8-3.581-8-8v-25.618c0-4.418 3.582-8 8-8h17.649v-81.382c0-4.418 3.582-8 8-8h52.474c4.419 0 8 3.582 8 8v81.382h28.982v-134.151c0-4.418 3.582-8 8-8h52.474c4.419 0 8 3.582 8 8v134.151h11.706v-49.711c0-12.413 7-23.248 17.253-28.757v-110.761c0-4.418 3.582-8 8-8h52.497c4.419 0 8 3.582 8 8v106.9h28.959v-156.454c0-4.418 3.582-8 8-8h52.475c4.418 0 8 3.582 8 8v156.454h29.616c17.962 0 32.618 14.656 32.618 32.618v123.312c0 17.965-14.652 32.58-32.618 32.58h-12.819v42.13c0 3.265-1.984 6.202-5.013 7.421-3.028 1.219-6.494.475-8.756-1.879l-45.794-47.672h-107.8c-17.965 0-32.618-14.615-32.618-32.58zm-161.636-41.618h36.474c0-20.512 0-73.382 0-73.382h-36.474zm97.456 0h36.474c0-28.892 0-126.151 0-126.151h-36.474zm64.18 16h-187.285v9.618h187.285zm33.253-98.329h36.497v-98.9h-36.497zm97.456 0h36.475c0-31.92 0-148.454 0-148.454h-36.475zm-114.709 155.93c0 9.148 7.47 16.58 16.618 16.58h111.208c2.177 0 4.261.888 5.769 2.458l34.386 35.796v-30.254c0-4.418 3.582-8 8-8h20.819c9.148 0 16.618-7.432 16.618-16.58v-123.312c0-9.151-7.467-16.618-16.618-16.618h-180.182c-9.151 0-16.618 7.467-16.618 16.618zm101.462-7.183c-11.711-7.084-29.285-19.697-41.604-34.455-9.08-10.876-15.224-22.976-15.436-34.913v-.001c-.321-18.272 9.824-31.35 23.484-36.135 11.415-3.999 25.754-2.273 38.794 8.174 13.039-10.433 27.38-12.161 38.798-8.167 13.669 4.782 23.819 17.855 23.499 36.128v.001c-.213 11.937-6.357 24.037-15.436 34.913-12.319 14.758-29.894 27.371-41.603 34.454-3.317 2.03-7.179 2.03-10.496.001zm5.247-15.57c10.412-6.603 24.472-17.042 34.569-29.138 6.555-7.853 11.568-16.325 11.721-24.943.181-10.331-5.057-18.04-12.785-20.743-8.263-2.891-18.652-.06-27.735 9.436-1.51 1.578-3.599 2.47-5.783 2.47-2.184-.001-4.273-.894-5.782-2.473-9.081-9.502-19.462-12.336-27.718-9.443-7.725 2.706-12.958 10.42-12.777 20.753.154 8.618 5.166 17.09 11.722 24.943 10.097 12.096 24.156 22.535 34.568 29.138zm-283.18-357.221c49.734 0 90.111 40.378 90.111 90.111 0 49.734-40.377 90.111-90.111 90.111s-90.111-40.377-90.111-90.111c0-49.733 40.377-90.111 90.111-90.111zm0 16c-40.903 0-74.111 33.208-74.111 74.111s33.208 74.111 74.111 74.111 74.111-33.208 74.111-74.111-33.208-74.111-74.111-74.111zm-25.861 19.92c6.203 0 12.041 2.419 16.42 6.798 4.378 4.379 6.798 10.262 6.798 16.42 0 12.817-10.355 23.217-23.218 23.217-12.818 0-23.218-10.354-23.218-23.217 0-12.818 10.4-23.218 23.218-23.218zm0 16c-3.985 0-7.218 3.233-7.218 7.218 0 3.999 3.233 7.217 7.218 7.217 3.999 0 7.218-3.233 7.218-7.217 0-1.915-.751-3.745-2.112-5.107-1.362-1.361-3.177-2.111-5.106-2.111zm51.533-10.874c2.577-3.586 7.579-4.406 11.165-1.829 3.586 2.576 4.406 7.579 1.83 11.164l-63.771 88.766c-2.577 3.586-7.579 4.405-11.165 1.829s-4.406-7.579-1.83-11.165zm.189 56.821c6.204 0 12.041 2.419 16.42 6.798s6.798 10.217 6.798 16.42c0 12.818-10.4 23.218-23.218 23.218-12.817 0-23.218-10.4-23.218-23.218s10.401-23.218 23.218-23.218zm0 16c-3.984 0-7.218 3.233-7.218 7.218s3.234 7.218 7.218 7.218c3.985 0 7.218-3.233 7.218-7.218 0-1.929-.75-3.745-2.112-5.106-1.361-1.362-3.177-2.112-5.106-2.112z"/></svg>